# AST/ASF file generated using VICON BodyLanguage
# -----------------------------------------------
:version 1.10
:name VICON
:units
  mass 1.0
  length 0.45
  angle deg
:documentation
   .ast/.asf automatically generated from VICON data using
   VICON BodyBuilder and BodyLanguage model FoxedUp or BRILLIANT.MOD
:root
   order TX TY TZ RX RY RZ
   axis XYZ
   position 0 0 0  
   orientation 0 0 0 
:bonedata
  begin
     id 1 
     name lhipjoint
     direction 0.541323 -0.757556 0.364798 
     length 2.47576 
     axis 0 0 0  XYZ
  end
  begin
     id 2 
     name lfemur
     direction 0.34202 -0.939693 0  
     length 7.46493  
     axis 0 0 20  XYZ
    dof rx ry rz
    limits (-160.0 20.0)
           (-70.0 70.0)
           (-60.0 70.0)
  end
  begin
     id 3 
     name ltibia
     direction 0.34202 -0.939693 0   
     length 7.73805   
     axis 0 0 20   XYZ
    dof rx
    limits (-10.0 170.0)
  end
  begin
     id 4 
     name lfoot
     direction 0.107174 -0.294458 0.949636   
     length 2.25864   
     axis -90 7.62852e-016 20   XYZ
    dof rx rz
    limits (-45.0 90.0)
           (-70.0 20.0)
  end
  begin
     id 5 
     name ltoes
     direction 1.53606e-011 -4.21934e-011 1   
     length 1.12451   
     axis -90 7.62852e-016 20   XYZ
    dof rx
    limits (-90.0 20.0)
  end
  begin
     id 6 
     name rhipjoint
     direction -0.524745 -0.766967 0.36933   
     length 2.44538  
     axis 0 0 0  XYZ 
  end
  begin
     id 7 
     name rfemur
     direction -0.34202 -0.939693 0   
     length 7.61604   
     axis 0 0 -20   XYZ
    dof rx ry rz
    limits (-160.0 20.0)
           (-70.0 70.0)
           (-70.0 60.0)
  end
  begin
     id 8 
     name rtibia
     direction -0.34202 -0.939693 0   
     length 7.61056   
     axis 0 0 -20   XYZ
    dof rx
    limits (-10.0 170.0)
 end
 begin
     id 9 
     name rfoot
     direction -0.12616 -0.346623 0.929482   
     length 2.46372  
     axis -90 -7.62852e-016 -20   XYZ
    dof rx rz
    limits (-45.0 90.0)
           (-20.0 70.0)
  end
  begin
     id 10 
     name rtoes
     direction -1.53531e-011 -4.22004e-011 1   
     length 1.21611   
     axis -90 -7.62852e-016 -20   XYZ
    dof rx
    limits (-90.0 20.0)
  end
  begin
     id 11 
     name lowerback
     direction -0.000778023 0.997293 -0.0735223   
     length 2.06139   
     axis 0 0 0   XYZ
    dof rx ry rz
    limits (-20.0 45.0)
           (-30.0 30.0)
           (-30.0 30.0)
  end
  begin
     id 12 
     name upperback
     direction 0.0222598 0.999722 -0.0078355   
     length 2.06383   
     axis 0 0 0   XYZ
    dof rx ry rz
    limits (-20.0 45.0)
           (-30.0 30.0)
           (-30.0 30.0)
  end
  begin
     id 13 
     name thorax
     direction 0.0219654 0.999405 0.0265994   
     length 2.07163   
     axis 0 0 0   XYZ
    dof rx ry rz
    limits (-20.0 45.0)
           (-30.0 30.0)
           (-30.0 30.0)
  end
  begin
     id 14 
     name lowerneck
     direction 0.0213282 0.988147 0.15202   
     length 1.75969   
     axis 0 0 0   XYZ
    dof rx ry rz
    limits (-20.0 45.0)
           (-30.0 30.0)
           (-30.0 30.0)
  end
  begin
     id 15 
     name upperneck
     direction -0.0546456 0.982624 -0.177379   
     length 1.79244   
     axis 0 0 0   XYZ
    dof rx ry rz
    limits (-20.0 45.0)
           (-30.0 30.0)
           (-30.0 30.0)
  end
  begin
     id 16
     name head
     direction -0.0199987 0.996855 -0.076686  
     length 1.80555  
     axis 0 0 0   XYZ
    dof rx ry rz
    limits (-20.0 45.0)
           (-30.0 30.0)
           (-30.0 30.0)
  end
  begin
     id 17 
     name lclavicle
     direction 0.929565 0.363219 -0.063096  
     length 3.55722  
     axis 0 0 0   XYZ
    dof ry rz
    limits (-20.0 10.0)
           (0.0 20.0)
  end
  begin
     id 18 
     name lhumerus
     direction 1 -4.48993e-011 -2.36203e-027   
     length 4.92785   
     axis 180 -30 -90   XYZ
    dof rx ry rz
    limits (-60.0 90.0)
           (-90.0 90.0)
           (-90.0 90.0)
  end
  begin
     id 19
     name lradius
     direction 1 -4.48947e-011 2.02997e-027   
     length 3.44052   
     axis 180 -30 -90   XYZ
    dof rx
    limits (-10.0 170.0)
  end
  begin
     id 20
     name lwrist
     direction 1 -4.48962e-011 1.45991e-027   
     length 1.72026   
     axis 1.49639e-024 90 90   XYZ
    dof ry
    limits (-180.0 0.0)
 end
  begin
     id 21 
     name lhand
     direction 1 -4.48984e-011 2.91906e-027   
     length 0.654326   
     axis -1.863e-015 90 90   XYZ
    dof rx rz
    limits (-90.0 90.0)
           (-45.0 45.0)
  end
  begin
     id 22 
     name lfingers
     direction 1 -4.48961e-011 5.83968e-027   
     length 0.527534   
     axis -3.72598e-015 90 90   XYZ
    dof rx
    limits (0.0 90.0)
  end
  begin
     id 23
     name lthumb
     direction 0.707107 -6.34963e-011 0.707107   
     length 0.757437   
     axis -90 45 -6.68868e-015   XYZ
    dof rx rz
    limits (-45.0 45.0)
           (-45.0 45.0)
  end
  begin
     id 24 
     name rclavicle
     direction -0.902944 0.422599 -0.0781198   
     length 3.54432  
     axis 0 0 0   XYZ 
    dof ry rz
    limits (-10.0 20.0)
           (-20.0 0.0)
  end
  begin
     id 25 
     name rhumerus
     direction -1 -4.48953e-011 -4.75835e-028  
     length 5.09181   
     axis 180 30 90   XYZ
    dof rx ry rz
    limits (-90.0 60.0)
           (-90.0 90.0)
           (-90.0 90.0)
  end
  begin
     id 26 
     name rradius
     direction -1 -4.48986e-011 -3.25889e-027   
     length 3.49865   
     axis 180 30 90   XYZ
    dof rx
    limits (-10.0 170.0)
  end
  begin
     id 27 
     name rwrist
     direction -1 -4.48963e-011 1.45989e-027   
     length 1.74933   
     axis 1.49639e-024 -90 -90   XYZ
    dof ry
    limits (-180.0 0.0)
  end
  begin
     id 28
     name rhand
     direction -1 -4.49003e-011 2.91844e-027   
     length 0.66641   
     axis -1.863e-015 -90 -90   XYZ
    dof rx rz
    limits (-90.0 90.0)
           (-45.0 45.0)
  end
  begin
     id 29
     name rfingers
     direction -1 -4.48973e-011 5.83886e-027   
     length 0.537277   
     axis -3.72598e-015 -90 -90   XYZ
    dof rx
    limits (0.0 90.0)
  end
  begin
     id 30
     name rthumb
     direction -0.707107 -6.34976e-011 0.707107   
     length 0.771425   
     axis -90 -45 6.68868e-015   XYZ
    dof rx rz
    limits (-45.0 45.0)
           (-45.0 45.0)
  end
:hierarchy
  begin
    root lhipjoint rhipjoint lowerback
    lhipjoint lfemur
    lfemur ltibia
    ltibia lfoot
    lfoot ltoes
    rhipjoint rfemur
    rfemur rtibia
    rtibia rfoot
    rfoot rtoes
    lowerback upperback
    upperback thorax
    thorax lowerneck lclavicle rclavicle
    lowerneck upperneck
    upperneck head
    lclavicle lhumerus
    lhumerus lradius
    lradius lwrist
    lwrist lhand lthumb
    lhand lfingers
    rclavicle rhumerus
    rhumerus rradius
    rradius rwrist
    rwrist rhand rthumb
    rhand rfingers
  end

#!OML:ASF H:\LiuWeirdWalks\Patient Classification 1\Patient 1\Session 1\male.ASF
:FULLY-SPECIFIED
:DEGREES
91
root 1.06124 17.7802 -29.3286 -0.0222727 4.79966 0.260516
lowerback 7.47702 -0.991501 -6.9924
upperback -1.0679 -1.81783 3.11431
thorax -5.01323 -0.652975 7.4575
lowerneck -19.7239 2.31981 7.33405
upperneck 26.4053 2.31626 -4.8709
head 12.124 1.13959 -2.70814
rclavicle -3.72721e-016 -4.37326e-015
rhumerus -40.3393 -10.4926 -69.3173
rradius 31.0354
rwrist -7.31604
rhand -17.3366 2.20069
rfingers 7.12502
rthumb 8.91054 -27.5912
lclavicle -3.72721e-016 -4.37326e-015
lhumerus -36.5576 3.02987 83.8572
lradius 30.2124
lwrist 4.42411
lhand -12.1385 -2.27413
lfingers 7.12502
lthumb 13.9235 27.2397
rfemur -18.2382 -7.91856 12.2251
rtibia 74.7763
rfoot 10.222 -8.4432
rtoes -2.19531
lfemur -3.78648 2.53738 -27.0252
ltibia 24.1089
lfoot -13.3909 14.1941
ltoes -5.47508
92
root 1.06047 17.7805 -29.3279 0.0177736 4.81786 0.278859
lowerback 7.50213 -0.879557 -6.93834
upperback -1.05039 -1.66956 3.00788
thorax -5.03967 -0.58174 7.29611
lowerneck -19.5683 2.24566 7.27482
upperneck 26.0573 2.12302 -4.5025
head 11.9382 1.09338 -2.58168
rclavicle 1.20265e-014 5.56597e-015
rhumerus -40.463 -10.8892 -69.307
rradius 31.1066
rwrist -7.29861
rhand -17.3148 2.23838
rfingers 7.12502
rthumb 8.93156 -27.5526
lclavicle 1.20265e-014 5.56597e-015
lhumerus -36.4522 2.5697 83.8786
lradius 30.1638
lwrist 4.44215
lhand -12.1137 -2.29066
lfingers 7.12502
lthumb 13.9474 27.2215
rfemur -18.2505 -7.9246 12.2107
rtibia 74.7708
rfoot 10.2242 -8.42448
rtoes -1.80845
lfemur -3.83231 2.55025 -27.042
ltibia 24.1168
lfoot -13.3994 14.1738
ltoes -5.46657
93
root 1.05955 17.7809 -29.3273 0.0650429 4.83864 0.283796
lowerback 7.52524 -0.756237 -6.86829
upperback -1.06268 -1.50556 2.89033
thorax -5.09903 -0.500941 7.11246
lowerneck -19.4038 2.23984 7.31717
upperneck 25.7453 1.99113 -4.10949
head 11.7731 1.08773 -2.45532
rclavicle 4.5969e-016 -1.03368e-014
rhumerus -40.6773 -11.3005 -69.2896
rradius 31.2028
rwrist -7.29889
rhand -17.307 2.25121
rfingers 7.12502
rthumb 8.93907 -27.5394
lclavicle 4.5969e-016 -1.03368e-014
lhumerus -36.389 2.04909 83.8914
lradius 30.1052
lwrist 4.46327
lhand -12.0746 -2.22899
lfingers 7.12502
lthumb 13.9851 27.2806
rfemur -18.2683 -7.93107 12.2157
rtibia 74.7598
rfoot 10.2312 -8.40161
rtoes -1.80689
lfemur -3.89308 2.55887 -27.0435
ltibia 24.1319
lfoot -13.4238 14.1525
ltoes -5.42237
94
root 1.05864 17.7815 -29.3269 0.11563 4.85501 0.280468
lowerback 7.5435 -0.786161 -6.86675
upperback -1.08267 -1.54566 2.9155
thorax -5.12305 -0.518769 7.14426
lowerneck -19.472 2.28223 7.34638
upperneck 25.8652 2.05858 -4.17625
head 11.8388 1.11318 -2.47688
rclavicle 1.86609e-014 2.0276e-014
rhumerus -40.6807 -11.1128 -69.3487
rradius 31.276
rwrist -7.37328
rhand -17.3089 2.24649
rfingers 7.12502
rthumb 8.93726 -27.5442
lclavicle 1.86609e-014 2.0276e-014
lhumerus -36.4446 2.15663 83.8621
lradius 30.0697
lwrist 4.41759
lhand -12.0241 -2.10918
lfingers 7.12502
lthumb 14.0338 27.397
rfemur -18.2883 -7.93242 12.2322
rtibia 74.743
rfoot 10.2405 -8.37347
rtoes -2.14464
lfemur -3.96137 2.56556 -27.0357
ltibia 24.1537
lfoot -13.4668 14.1301
ltoes -5.34429
95
root 1.05772 17.7822 -29.3266 0.166367 4.86258 0.269856
lowerback 7.56688 -0.822149 -6.86638
upperback -1.13633 -1.59461 2.94582
thorax -5.18395 -0.538081 7.18442
lowerneck -19.589 2.40745 7.48955
upperneck 26.1359 2.22011 -4.29011
head 11.9824 1.18765 -2.52326
rclavicle -1.65364e-014 3.57812e-015
rhumerus -40.7575 -10.855 -69.4127
rradius 31.37
rwrist -7.47017
rhand -17.323 2.22565
rfingers 7.12502
rthumb 8.92371 -27.5656
lclavicle -1.65364e-014 3.57812e-015
lhumerus -36.581 2.28866 83.818
lradius 30.0427
lwrist 4.38551
lhand -11.9699 -1.9574
lfingers 7.12502
lthumb 14.086 27.5452
rfemur -18.3098 -7.92609 12.2583
rtibia 74.7211
rfoot 10.2509 -8.34432
rtoes -2.76774
lfemur -4.03396 2.5722 -27.0199
ltibia 24.1795
lfoot -13.5121 14.1113
ltoes -5.26284
